<svg width="112" height="28" viewBox="0 0 112 28" fill="none" xmlns="http://www.w3.org/2000/svg">
<g opacity="0.20073">
<path fill-rule="evenodd" clip-rule="evenodd" d="M6.04335 10.9732C6.03759 10.979 6.03184 10.9847 6.0261 10.9904C2.88643 14.1301 2.82323 19.1573 5.88494 22.219C8.94665 25.2807 13.9739 25.2175 17.1135 22.0779C17.1193 22.0721 17.125 22.0664 17.1307 22.0606L6.04335 10.9732Z" fill="#617082"/>
<path fill-rule="evenodd" clip-rule="evenodd" d="M2.72836 6.01611C5.35269 3.39179 9.60755 3.39179 12.2319 6.01611C14.8562 8.64044 14.8562 12.8953 12.2319 15.5196L2.72836 6.01611Z" fill="#617082"/>
</g>
<path d="M29.3403 10.308C29.3115 10.1352 29.2467 9.9408 29.1459 9.7248C29.0595 9.4944 28.9155 9.2856 28.7139 9.0984C28.5267 8.8968 28.2747 8.7312 27.9579 8.6016C27.6411 8.4576 27.2523 8.3856 26.7915 8.3856C26.1579 8.3856 25.6467 8.5584 25.2579 8.904C24.8835 9.2352 24.6963 9.6096 24.6963 10.0272C24.6963 10.4016 24.8115 10.7184 25.0419 10.9776C25.2867 11.2224 25.6755 11.3952 26.2083 11.496L28.2603 11.8848C28.9947 12.0144 29.6355 12.2304 30.1827 12.5328C30.7299 12.8208 31.1907 13.1664 31.5651 13.5696C31.9395 13.9728 32.2203 14.4264 32.4075 14.9304C32.5947 15.42 32.6883 15.9384 32.6883 16.4856C32.6883 17.0904 32.5659 17.6808 32.3211 18.2568C32.0763 18.8328 31.7091 19.3512 31.2195 19.812C30.7443 20.2584 30.1539 20.6256 29.4483 20.9136C28.7427 21.1872 27.9363 21.324 27.0291 21.324C25.9635 21.324 25.0491 21.1728 24.2859 20.8704C23.5227 20.5536 22.8891 20.1576 22.3851 19.6824C21.8811 19.2072 21.4995 18.6816 21.2403 18.1056C20.9811 17.5296 20.8227 16.968 20.7651 16.4208L23.8971 15.6648C23.9259 16.0104 24.0051 16.3488 24.1347 16.68C24.2787 16.9968 24.4803 17.2776 24.7395 17.5224C24.9987 17.7528 25.3227 17.94 25.7115 18.084C26.1003 18.228 26.5539 18.3 27.0723 18.3C27.7491 18.3 28.2747 18.156 28.6491 17.868C29.0379 17.5656 29.2323 17.1768 29.2323 16.7016C29.2323 16.3128 29.0811 15.9888 28.7787 15.7296C28.4907 15.456 28.0947 15.2688 27.5907 15.168L25.4955 14.7792C24.1851 14.5344 23.1627 14.0088 22.4283 13.2024C21.6939 12.396 21.3267 11.424 21.3267 10.2864C21.3267 9.5664 21.4707 8.904 21.7587 8.2992C22.0611 7.6944 22.4643 7.176 22.9683 6.744C23.4723 6.312 24.0555 5.9736 24.7179 5.7288C25.3803 5.484 26.0787 5.3616 26.8131 5.3616C27.7635 5.3616 28.5771 5.4912 29.2539 5.7504C29.9307 6.0096 30.4851 6.3408 30.9171 6.744C31.3635 7.1328 31.7019 7.572 31.9323 8.0616C32.1627 8.5368 32.3211 8.9976 32.4075 9.444L29.3403 10.308ZM41.7345 14.3472C41.7201 14.1456 41.6697 13.9368 41.5833 13.7208C41.5113 13.5048 41.3889 13.3104 41.2161 13.1376C41.0433 12.9648 40.8201 12.8208 40.5465 12.7056C40.2873 12.5904 39.9633 12.5328 39.5745 12.5328C39.2289 12.5328 38.9265 12.5904 38.6673 12.7056C38.4081 12.8208 38.1849 12.9648 37.9977 13.1376C37.8249 13.3104 37.6881 13.5048 37.5873 13.7208C37.5009 13.9368 37.4505 14.1456 37.4361 14.3472H41.7345ZM44.7153 17.9112C44.5857 18.372 44.3841 18.8112 44.1105 19.2288C43.8369 19.6464 43.4913 20.0136 43.0737 20.3304C42.6561 20.6328 42.1665 20.8704 41.6049 21.0432C41.0577 21.2304 40.4457 21.324 39.7689 21.324C39.0345 21.324 38.3289 21.1944 37.6521 20.9352C36.9753 20.676 36.3777 20.3016 35.8593 19.812C35.3409 19.3224 34.9305 18.7248 34.6281 18.0192C34.3257 17.3136 34.1745 16.5072 34.1745 15.6C34.1745 14.736 34.3185 13.9584 34.6065 13.2672C34.9089 12.5616 35.3049 11.964 35.7945 11.4744C36.2985 10.9848 36.8745 10.6104 37.5225 10.3512C38.1705 10.0776 38.8401 9.9408 39.5313 9.9408C41.2017 9.9408 42.5121 10.4232 43.4625 11.388C44.4273 12.3528 44.9097 13.7064 44.9097 15.4488C44.9097 15.6792 44.9025 15.9024 44.8881 16.1184C44.8737 16.32 44.8593 16.4352 44.8449 16.464H37.3713C37.3857 16.7664 37.4577 17.0472 37.5873 17.3064C37.7313 17.5512 37.9113 17.7672 38.1273 17.9544C38.3577 18.1416 38.6169 18.2856 38.9049 18.3864C39.1929 18.4872 39.4953 18.5376 39.8121 18.5376C40.4169 18.5376 40.8849 18.408 41.2161 18.1488C41.5617 17.8896 41.8137 17.5512 41.9721 17.1336L44.7153 17.9112ZM47.1777 21V5.3616H50.4609V21H47.1777ZM53.5182 21V5.3616H56.8014V21H53.5182ZM59.8587 21V10.2648H63.1419V21H59.8587ZM59.5779 6.9816C59.5779 6.7224 59.6283 6.4776 59.7291 6.2472C59.8299 6.0024 59.9667 5.7936 60.1395 5.6208C60.3123 5.448 60.5139 5.3112 60.7443 5.2104C60.9747 5.1096 61.2195 5.0592 61.4787 5.0592C62.0259 5.0592 62.4867 5.2464 62.8611 5.6208C63.2355 5.9952 63.4227 6.4488 63.4227 6.9816C63.4227 7.5144 63.2355 7.968 62.8611 8.3424C62.4867 8.7168 62.0259 8.904 61.4787 8.904C61.2195 8.904 60.9747 8.8536 60.7443 8.7528C60.5139 8.652 60.3123 8.5152 60.1395 8.3424C59.9667 8.1696 59.8299 7.968 59.7291 7.7376C59.6283 7.4928 59.5779 7.2408 59.5779 6.9816ZM72.9605 14.3472C72.9461 14.1456 72.8957 13.9368 72.8093 13.7208C72.7373 13.5048 72.6149 13.3104 72.4421 13.1376C72.2693 12.9648 72.0461 12.8208 71.7725 12.7056C71.5133 12.5904 71.1893 12.5328 70.8005 12.5328C70.4549 12.5328 70.1525 12.5904 69.8933 12.7056C69.6341 12.8208 69.4109 12.9648 69.2237 13.1376C69.0509 13.3104 68.9141 13.5048 68.8133 13.7208C68.7269 13.9368 68.6765 14.1456 68.6621 14.3472H72.9605ZM75.9413 17.9112C75.8117 18.372 75.6101 18.8112 75.3365 19.2288C75.0629 19.6464 74.7173 20.0136 74.2997 20.3304C73.8821 20.6328 73.3925 20.8704 72.8309 21.0432C72.2837 21.2304 71.6717 21.324 70.9949 21.324C70.2605 21.324 69.5549 21.1944 68.8781 20.9352C68.2013 20.676 67.6037 20.3016 67.0853 19.812C66.5669 19.3224 66.1565 18.7248 65.8541 18.0192C65.5517 17.3136 65.4005 16.5072 65.4005 15.6C65.4005 14.736 65.5445 13.9584 65.8325 13.2672C66.1349 12.5616 66.5309 11.964 67.0205 11.4744C67.5245 10.9848 68.1005 10.6104 68.7485 10.3512C69.3965 10.0776 70.0661 9.9408 70.7573 9.9408C72.4277 9.9408 73.7381 10.4232 74.6885 11.388C75.6533 12.3528 76.1357 13.7064 76.1357 15.4488C76.1357 15.6792 76.1285 15.9024 76.1141 16.1184C76.0997 16.32 76.0853 16.4352 76.0709 16.464H68.5973C68.6117 16.7664 68.6837 17.0472 68.8133 17.3064C68.9573 17.5512 69.1373 17.7672 69.3533 17.9544C69.5837 18.1416 69.8429 18.2856 70.1309 18.3864C70.4189 18.4872 70.7213 18.5376 71.0381 18.5376C71.6429 18.5376 72.1109 18.408 72.4421 18.1488C72.7877 17.8896 73.0397 17.5512 73.1981 17.1336L75.9413 17.9112Z" fill="#44474A"/>
<rect x="80" y="7" width="32" height="16" rx="3.2" fill="#F4F6F8"/>
<path d="M85.0772 18.8V10.7024H87.8716C88.4018 10.7024 88.8535 10.7528 89.2268 10.8536C89.6039 10.9544 89.9119 11.0981 90.1508 11.2848C90.3935 11.4715 90.5708 11.6973 90.6828 11.9624C90.7948 12.2275 90.8508 12.5261 90.8508 12.8584C90.8508 13.0488 90.8228 13.2317 90.7668 13.4072C90.7108 13.5789 90.6231 13.7413 90.5036 13.8944C90.3879 14.0437 90.2386 14.18 90.0556 14.3032C89.8764 14.4264 89.6618 14.5309 89.4116 14.6168C90.5242 14.8669 91.0804 15.468 91.0804 16.42C91.0804 16.7635 91.0151 17.0808 90.8844 17.372C90.7538 17.6632 90.5634 17.9152 90.3132 18.128C90.0631 18.3371 89.7551 18.5013 89.3892 18.6208C89.0234 18.7403 88.6052 18.8 88.1348 18.8H85.0772ZM86.5836 15.2496V17.624H88.1124C88.3924 17.624 88.6258 17.5904 88.8124 17.5232C89.0028 17.456 89.154 17.3664 89.266 17.2544C89.3818 17.1424 89.4639 17.0117 89.5124 16.8624C89.5647 16.7131 89.5908 16.5544 89.5908 16.3864C89.5908 16.2109 89.5628 16.0541 89.5068 15.916C89.4508 15.7741 89.3631 15.6547 89.2436 15.5576C89.1242 15.4568 88.9711 15.3803 88.7844 15.328C88.5978 15.2757 88.3719 15.2496 88.1068 15.2496H86.5836ZM86.5836 14.208H87.7876C88.2991 14.208 88.6874 14.1147 88.9524 13.928C89.2175 13.7413 89.35 13.4445 89.35 13.0376C89.35 12.6157 89.2306 12.3152 88.9916 12.136C88.7527 11.9568 88.3794 11.8672 87.8716 11.8672H86.5836V14.208ZM94.6715 12.9648C95.0336 12.9648 95.3659 13.0227 95.6683 13.1384C95.9744 13.2541 96.2376 13.424 96.4579 13.648C96.6782 13.8683 96.8499 14.1408 96.9731 14.4656C97.0963 14.7867 97.1579 15.1544 97.1579 15.5688C97.1579 15.6733 97.1523 15.7611 97.1411 15.832C97.1336 15.8992 97.1168 15.9533 97.0907 15.9944C97.0683 16.0317 97.0366 16.0597 96.9955 16.0784C96.9544 16.0933 96.9022 16.1008 96.8387 16.1008H93.2883C93.3294 16.6907 93.488 17.1237 93.7643 17.4C94.0406 17.6763 94.4064 17.8144 94.8619 17.8144C95.0859 17.8144 95.2782 17.7883 95.4387 17.736C95.603 17.6837 95.7448 17.6259 95.8643 17.5624C95.9875 17.4989 96.0939 17.4411 96.1835 17.3888C96.2768 17.3365 96.3664 17.3104 96.4523 17.3104C96.5083 17.3104 96.5568 17.3216 96.5979 17.344C96.639 17.3664 96.6744 17.3981 96.7043 17.4392L97.1075 17.9432C96.9544 18.1224 96.7827 18.2736 96.5923 18.3968C96.4019 18.5163 96.2022 18.6133 95.9931 18.688C95.7878 18.7589 95.5768 18.8093 95.3603 18.8392C95.1475 18.8691 94.9403 18.884 94.7387 18.884C94.3392 18.884 93.9678 18.8187 93.6243 18.688C93.2808 18.5536 92.9822 18.3576 92.7283 18.1C92.4744 17.8387 92.2747 17.5176 92.1291 17.1368C91.9835 16.7523 91.9107 16.308 91.9107 15.804C91.9107 15.412 91.9742 15.0443 92.1011 14.7008C92.228 14.3536 92.4091 14.0531 92.6443 13.7992C92.8832 13.5416 93.1726 13.3381 93.5123 13.1888C93.8558 13.0395 94.2422 12.9648 94.6715 12.9648ZM94.6995 13.956C94.2963 13.956 93.9808 14.0699 93.7531 14.2976C93.5254 14.5253 93.3798 14.8483 93.3163 15.2664H95.9147C95.9147 15.0872 95.8904 14.9192 95.8419 14.7624C95.7934 14.6019 95.7187 14.4619 95.6179 14.3424C95.5171 14.2229 95.3902 14.1296 95.2371 14.0624C95.084 13.9915 94.9048 13.956 94.6995 13.956ZM100.17 18.8896C99.6735 18.8896 99.2909 18.7496 99.0221 18.4696C98.7533 18.1859 98.6189 17.7957 98.6189 17.2992V14.0904H98.0365C97.9618 14.0904 97.8965 14.0661 97.8405 14.0176C97.7882 13.9691 97.7621 13.8963 97.7621 13.7992V13.2504L98.6861 13.0992L98.9773 11.5312C98.9922 11.4565 99.0258 11.3987 99.0781 11.3576C99.1341 11.3165 99.2031 11.296 99.2853 11.296H100.002V13.1048H101.514V14.0904H100.002V17.204C100.002 17.3832 100.047 17.5232 100.136 17.624C100.226 17.7248 100.346 17.7752 100.495 17.7752C100.581 17.7752 100.652 17.7659 100.708 17.7472C100.767 17.7248 100.818 17.7024 100.859 17.68C100.904 17.6576 100.943 17.6371 100.976 17.6184C101.01 17.596 101.044 17.5848 101.077 17.5848C101.118 17.5848 101.152 17.596 101.178 17.6184C101.204 17.6371 101.232 17.6669 101.262 17.708L101.676 18.38C101.475 18.548 101.243 18.6749 100.982 18.7608C100.721 18.8467 100.45 18.8896 100.17 18.8896ZM107.119 18.8H106.498C106.367 18.8 106.265 18.7813 106.19 18.744C106.115 18.7029 106.059 18.6227 106.022 18.5032L105.899 18.0944C105.753 18.2251 105.609 18.3408 105.467 18.4416C105.329 18.5387 105.186 18.6208 105.036 18.688C104.887 18.7552 104.728 18.8056 104.56 18.8392C104.392 18.8728 104.206 18.8896 104 18.8896C103.758 18.8896 103.534 18.8579 103.328 18.7944C103.123 18.7272 102.946 18.6283 102.796 18.4976C102.651 18.3669 102.537 18.2045 102.455 18.0104C102.373 17.8163 102.331 17.5904 102.331 17.3328C102.331 17.1163 102.387 16.9035 102.499 16.6944C102.615 16.4816 102.806 16.2912 103.071 16.1232C103.336 15.9515 103.689 15.8096 104.129 15.6976C104.57 15.5856 105.117 15.5221 105.77 15.5072V15.1712C105.77 14.7867 105.688 14.5029 105.523 14.32C105.363 14.1333 105.128 14.04 104.818 14.04C104.594 14.04 104.407 14.0661 104.258 14.1184C104.109 14.1707 103.978 14.2304 103.866 14.2976C103.758 14.3611 103.657 14.4189 103.563 14.4712C103.47 14.5235 103.367 14.5496 103.255 14.5496C103.162 14.5496 103.082 14.5253 103.015 14.4768C102.947 14.4283 102.893 14.3685 102.852 14.2976L102.6 13.8552C103.261 13.2504 104.058 12.948 104.991 12.948C105.327 12.948 105.626 13.004 105.887 13.116C106.153 13.2243 106.377 13.3773 106.559 13.5752C106.742 13.7693 106.881 14.0027 106.974 14.2752C107.071 14.5477 107.119 14.8464 107.119 15.1712V18.8ZM104.431 17.9376C104.573 17.9376 104.704 17.9245 104.823 17.8984C104.943 17.8723 105.055 17.8331 105.159 17.7808C105.268 17.7285 105.37 17.6651 105.467 17.5904C105.568 17.512 105.669 17.4205 105.77 17.316V16.3472C105.367 16.3659 105.029 16.4013 104.756 16.4536C104.487 16.5021 104.271 16.5656 104.107 16.644C103.942 16.7224 103.825 16.8139 103.754 16.9184C103.687 17.0229 103.653 17.1368 103.653 17.26C103.653 17.5027 103.724 17.6763 103.866 17.7808C104.011 17.8853 104.2 17.9376 104.431 17.9376Z" fill="#617082"/>
</svg>
